<?xml version="1.0" encoding="UTF-8" standalone="no"?>
<!DOCTYPE svg PUBLIC "-//W3C//DTD SVG 1.1//EN" "http://www.w3.org/Graphics/SVG/1.1/DTD/svg11.dtd">
<svg width="100%" height="100%" viewBox="0 0 454 675" version="1.1" xmlns="http://www.w3.org/2000/svg" xmlns:xlink="http://www.w3.org/1999/xlink" xml:space="preserve" xmlns:serif="http://www.serif.com/" style="fill-rule:evenodd;clip-rule:evenodd;stroke-linecap:round;stroke-linejoin:round;stroke-miterlimit:1.5;">
    <g transform="matrix(1,0,0,1,-277.286,-208.601)">
        <g transform="matrix(2,0,0,2,0,0)">
            <g id="Figure" transform="matrix(1,0,0,1,-87.9088,-32.6835)">
                <g id="Legs" transform="matrix(0.724756,0,0,1,79.5152,-23.7632)">
                    <g id="Right-leg" serif:id="Right leg" transform="matrix(0.5,0,0,-0.5,-47.7039,664.255)">
                        <path d="M893,556.51L902,388.51" style="fill:none;stroke:rgb(0,90,177);stroke-width:128.82px;"/>
                    </g>
                    <g id="Left-leg" serif:id="Left leg" transform="matrix(-0.5,0,0,-0.5,760.315,664.255)">
                        <path d="M893,556.51L940.039,388.51" style="fill:none;stroke:rgb(0,90,177);stroke-width:128.82px;"/>
                    </g>
                </g>
                <g id="Upper-body" serif:id="Upper body">
                    <g id="Arms" transform="matrix(0.9125,0,0,1,20.3653,0)">
                        <g id="Right-arm" serif:id="Right arm" transform="matrix(1,0,0,1,5.16454,6.83936)">
                            <g id="Right-arm1" serif:id="Right arm" transform="matrix(0.443359,0,0,0.50049,30.067,17.6915)">
                                <path d="M799.363,564.751L930.567,384.561" style="fill:none;stroke:rgb(0,90,177);stroke-width:105.3px;"/>
                            </g>
                            <g id="Right-hand" serif:id="Right hand" transform="matrix(0.609774,0.332309,-0.367027,0.67348,5.41146,-290.765)">
                                <path d="M899.114,259.492C914.016,259.492 927,267.098 927,282C927,296.902 873,296.902 873,282C873,267.098 884.212,259.492 899.114,259.492Z" style="fill:rgb(124,236,189);"/>
                            </g>
                        </g>
                        <g id="Left-arm" serif:id="Left arm" transform="matrix(1,0,0,1,14.5,2.7046)">
                            <g id="Left-arm1" serif:id="Left arm" transform="matrix(-0.709939,8.69425e-17,-5.71647e-17,-0.466786,860.433,555.576)">
                                <path d="M816.328,563.636L877.145,394.787" style="fill:none;stroke:rgb(0,90,177);stroke-width:84.87px;"/>
                            </g>
                            <g id="Left-hand" serif:id="Left hand" transform="matrix(-0.612388,-0.327466,0.361678,-0.676368,680.201,868.778)">
                                <path d="M899.114,259.492C914.016,259.492 927,267.098 927,282C927,296.902 873,296.902 873,282C873,267.098 884.212,259.492 899.114,259.492Z" style="fill:rgb(124,236,189);"/>
                            </g>
                        </g>
                    </g>
                    <g id="Shirt" transform="matrix(0.505744,0,0,0.620265,64.9271,96.9082)">
                        <path d="M675.101,330.458C656.096,312.383 642.192,292.755 636.552,271L454.89,271C415.556,279.874 395.347,299.39 395.899,330.458C402.074,367.127 409.863,413.379 415.5,446.851C439.816,513.547 628.537,508.768 655.5,446.851C661.137,413.379 668.926,367.127 675.101,330.458Z" style="fill:rgb(0,126,233);"/>
                    </g>
                </g>
                <g id="Initial" transform="matrix(75,0,0,75,313.382,369.54)">
                    <path d="M0.354,-0.368C0.456,-0.27 0.528,-0.196 0.571,-0.147C0.593,-0.122 0.604,-0.101 0.604,-0.085C0.604,-0.068 0.591,-0.048 0.564,-0.025C0.537,-0.002 0.516,0.01 0.499,0.01C0.482,0.01 0.461,-0.004 0.437,-0.032L0.217,-0.283L0.217,-0.088C0.217,-0.072 0.217,-0.06 0.216,-0.053C0.215,-0.046 0.211,-0.037 0.206,-0.027C0.197,-0.009 0.171,-0 0.128,-0C0.081,-0 0.054,-0.013 0.046,-0.038C0.042,-0.049 0.04,-0.066 0.04,-0.089L0.04,-0.645C0.04,-0.66 0.041,-0.672 0.042,-0.68C0.043,-0.687 0.046,-0.696 0.051,-0.706C0.06,-0.724 0.086,-0.733 0.129,-0.733C0.176,-0.733 0.203,-0.721 0.212,-0.696C0.215,-0.685 0.217,-0.667 0.217,-0.644L0.217,-0.453C0.308,-0.555 0.381,-0.639 0.437,-0.704C0.46,-0.731 0.481,-0.745 0.498,-0.745C0.515,-0.745 0.537,-0.733 0.564,-0.711C0.591,-0.688 0.604,-0.668 0.604,-0.651C0.604,-0.634 0.594,-0.613 0.574,-0.59C0.535,-0.545 0.475,-0.484 0.394,-0.406L0.354,-0.368Z" style="fill:white;fill-rule:nonzero;"/>
                </g>
                <g id="Head" transform="matrix(0.97856,-0.205962,0.205962,0.97856,-49.0778,82.2671)">
                    <g id="Face" transform="matrix(0.5,0,0,0.5,68,6.68889)">
                        <path d="M689.548,356.512C690.957,337 684.187,317.781 670.862,303.458C657.536,289.136 638.854,281 619.291,281L451.709,281C432.146,281 413.464,289.136 400.138,303.458C386.813,317.781 380.043,337 381.452,356.512C383.73,388.06 386.408,425.147 388.841,458.846C392.875,514.726 439.387,558 495.413,558L575.587,558C631.613,558 678.125,514.726 682.159,458.846C684.592,425.147 687.27,388.06 689.548,356.512Z" style="fill:rgb(124,236,189);"/>
                    </g>
                    <g id="Mouth" transform="matrix(0.5,0,0,0.395693,14.25,42.387)">
                        <path d="M623.5,526C644.286,537.685 669.5,531.792 686,512" style="fill:none;stroke:rgb(22,33,48);stroke-width:20.79px;"/>
                    </g>
                    <g id="Eyes" transform="matrix(1,0,0,1,-4.25,11.4817)">
                        <g id="Right-eye" serif:id="Right eye" transform="matrix(1.26649,0,0,1.26649,-98.8457,-49.5118)">
                            <g id="White" transform="matrix(0.395474,0,0,0.395474,80.3644,33.2073)">
                                <circle cx="735.361" cy="411.639" r="45.361" style="fill:white;"/>
                            </g>
                            <g id="Pupil" transform="matrix(0.386328,0.0813122,-0.0813122,0.386328,195.31,13.9943)">
                                <path d="M537.252,331.578C537.089,331.245 537.074,330.86 537.209,330.515C537.345,330.171 537.619,329.9 537.965,329.768C538.795,329.446 539.662,329.192 540.559,329.003C550.135,326.988 559.547,333.126 561.562,342.703C563.578,352.279 557.439,361.69 547.863,363.706C538.287,365.721 528.875,359.583 526.86,350.007C526.704,349.265 526.597,348.525 526.536,347.789C526.507,347.42 526.634,347.056 526.885,346.784C527.136,346.513 527.489,346.358 527.859,346.358C527.859,346.355 527.86,346.355 527.86,346.355C533.585,346.355 538.233,341.707 538.233,335.982C538.233,334.408 537.881,332.915 537.252,331.578Z" style="fill:rgb(22,33,48);"/>
                            </g>
                        </g>
                        <g id="Left-eye" serif:id="Left eye" transform="matrix(1.26649,0,0,1.26649,-161.346,-49.5118)">
                            <g id="White1" serif:id="White" transform="matrix(0.395474,0,0,0.395474,80.3644,33.2073)">
                                <circle cx="735.361" cy="411.639" r="45.361" style="fill:white;"/>
                            </g>
                            <g id="Pupil1" serif:id="Pupil" transform="matrix(0.386328,0.0813122,-0.0813122,0.386328,196.387,16.2441)">
                                <path d="M537.252,331.578C537.089,331.245 537.074,330.86 537.209,330.515C537.345,330.171 537.619,329.9 537.965,329.768C538.795,329.446 539.662,329.192 540.559,329.003C550.135,326.988 559.547,333.126 561.562,342.703C563.578,352.279 557.439,361.69 547.863,363.706C538.287,365.721 528.875,359.583 526.86,350.007C526.704,349.265 526.597,348.525 526.536,347.789C526.507,347.42 526.634,347.056 526.885,346.784C527.136,346.513 527.489,346.358 527.859,346.358C527.859,346.355 527.86,346.355 527.86,346.355C533.585,346.355 538.233,341.707 538.233,335.982C538.233,334.408 537.881,332.915 537.252,331.578Z" style="fill:rgb(22,33,48);"/>
                            </g>
                        </g>
                    </g>
                    <g id="Eyebrows" transform="matrix(1,0,0,1,0,6.98168)">
                        <g transform="matrix(0.5,0,0,0.5,2.75,2.48696)">
                            <path d="M713,335C742.652,331.096 766.292,339.153 783,361" style="fill:none;stroke:rgb(22,33,48);stroke-width:18.75px;"/>
                        </g>
                        <g transform="matrix(-0.5,0,0,0.5,668.75,0.98696)">
                            <path d="M713,335C742.652,331.096 766.292,339.153 783,361" style="fill:none;stroke:rgb(22,33,48);stroke-width:18.75px;"/>
                        </g>
                    </g>
                    <g id="Leaf" transform="matrix(-0.331681,-1.07459,1.07459,-0.331681,329.288,532.548)">
                        <g transform="matrix(0.5,0,0,0.5,0,0)">
                            <path d="M662.709,171.67C664.784,171.028 667.044,171.618 668.541,173.192C670.038,174.766 670.513,177.053 669.767,179.093C651.213,227.367 678.352,230.844 669,255C667.532,258.791 664.884,261.843 662.108,264.191C657.142,268.428 649.785,268.253 645.027,263.785C642.17,260.923 638.466,257.048 634,252C612.634,227.847 616.725,185.571 662.709,171.67Z" style="fill:rgb(0,207,115);"/>
                        </g>
                        <g transform="matrix(-0.264439,0,0,0.292392,497.414,59.4792)">
                            <path d="M646.133,126.294C674.04,153.111 670.98,178.775 655.782,201C646.139,216.422 641.752,231.447 642.704,246.217C643.161,253.307 645.052,258.437 648.833,268.697" style="fill:none;stroke:rgb(22,33,48);stroke-width:16.61px;"/>
                        </g>
                    </g>
                </g>
            </g>
        </g>
    </g>
</svg>
