<?xml version="1.0" standalone="no"?>
<!DOCTYPE svg PUBLIC "-//W3C//DTD SVG 20010904//EN"
 "http://www.w3.org/TR/2001/REC-SVG-20010904/DTD/svg10.dtd">
<svg version="1.0" xmlns="http://www.w3.org/2000/svg"
 width="1024.000000pt" height="1024.000000pt" viewBox="0 0 1024.000000 1024.000000"
 preserveAspectRatio="xMidYMid meet">
<metadata>
Created by potrace 1.11, written by Peter Selinger 2001-2013
</metadata>
<g transform="translate(0.000000,1024.000000) scale(0.100000,-0.100000)"
fill="#000000" stroke="none">
<path d="M5395 10233 c-25 -5 -68 -21 -121 -44 -85 -37 -194 -164 -219 -254
-4 -17 -10 -37 -12 -45 -3 -8 -6 -45 -8 -82 -4 -81 18 -173 60 -244 18 -31
284 -303 736 -754 390 -388 1126 -1122 1636 -1631 980 -978 986 -984 1138
-1044 196 -78 428 -64 615 36 97 53 133 83 307 258 199 199 305 332 413 515
129 219 229 495 270 751 40 242 32 579 -17 795 -8 36 -16 72 -18 80 -15 68
-55 192 -92 284 -160 399 -417 725 -773 982 -49 35 -92 64 -95 64 -4 0 -25 13
-48 28 -35 24 -137 76 -292 147 -74 35 -305 103 -405 121 -25 4 -47 8 -50 9
-3 1 -25 5 -50 9 -25 3 -61 9 -80 13 -39 7 -2864 13 -2895 6z"/>
<path d="M1890 10179 c-200 -25 -328 -55 -500 -118 -563 -206 -1013 -656
-1216 -1217 -54 -150 -95 -325 -110 -474 -3 -30 -7 -66 -10 -80 -9 -55 -3
-321 9 -400 3 -19 8 -55 12 -80 43 -312 207 -693 409 -950 95 -121 -213 188
3346 -3360 2488 -2481 2415 -2409 2510 -2485 245 -197 496 -323 800 -400 101
-26 111 -28 257 -49 85 -13 452 -15 500 -3 11 3 43 9 70 12 185 26 411 97 598
188 118 58 304 174 379 237 125 105 234 214 315 315 31 39 58 72 61 75 3 3 31
43 61 90 116 175 220 406 270 600 6 25 13 54 16 65 3 11 15 81 28 155 42 254
27 569 -39 827 -23 91 -71 234 -96 288 -104 225 -144 296 -253 440 -91 120
-73 101 -934 960 -2157 2152 -4821 4806 -4843 4825 -14 12 -41 36 -60 53 -45
41 -214 167 -224 167 -3 0 -24 13 -48 29 -153 103 -524 243 -708 268 -19 2
-73 10 -119 18 -88 13 -386 16 -481 4z"/>
<path d="M370 5223 c-162 -25 -321 -176 -359 -343 -12 -51 -10 -2833 2 -2910
31 -197 86 -421 127 -515 5 -11 21 -49 36 -85 113 -277 325 -573 559 -780 237
-210 533 -376 820 -460 111 -32 138 -40 170 -46 17 -3 65 -11 107 -19 191 -35
502 -40 683 -10 17 3 46 8 65 11 72 12 238 54 322 83 258 87 476 208 697 386
79 63 363 342 413 405 70 89 130 227 146 336 17 117 -5 334 -38 379 -4 6 -12
25 -18 43 -31 91 -109 179 -581 649 -262 261 -993 991 -1626 1622 -632 630
-1170 1161 -1195 1179 -84 59 -224 91 -330 75z"/>
</g>
</svg>
