<svg xmlns="http://www.w3.org/2000/svg" xmlns:xlink="http://www.w3.org/1999/xlink" viewBox="0 0 256 54.16">
    <defs>
        <style>
            .a {
                fill: none;
            }

            .b {
                clip-path: url(#a);
            }

            .c {
                fill: #fcca17;
            }

            .c,
            .d,
            .e {
                fill-rule: evenodd;
            }

            .d {
                fill: #ea391e;
            }

            .e {
                fill: #347de2;
            }

            .f {
                fill: #16202F;
            }
        </style>
        <clipPath id="a" transform="translate(0)">
            <rect class="a" y="0.4" width="53.77" height="53.77" />
        </clipPath>
    </defs>
    <path class="a" d="M0,.4V54.16H53.77V.39Z" transform="translate(0)" />
    <g class="b">
        <path class="c"
            d="M20.74,49.6a3.89,3.89,0,0,0,0-5.52L4,27.39a2.35,2.35,0,0,0-4,1.66V42.48a11.55,11.55,0,0,0,19.72,8.14Z"
            transform="translate(0)" />
        <path class="d"
            d="M49.35,21.09a3.91,3.91,0,0,1-5.5,0L27.11,4.4a2.34,2.34,0,0,1,1.65-4H42.22a11.51,11.51,0,0,1,8.17,19.65Z"
            transform="translate(0)" />
        <path class="e"
            d="M10.87.65A10.82,10.82,0,0,0,3.46,19.19l29,28.92a10.87,10.87,0,1,0,15.4-15.35l-29-28.92A11,11,0,0,0,11.13.65Z"
            transform="translate(0)" />
    </g>
    <path class="f"
        d="M90.2,35.3l9.21,7.6a12.91,12.91,0,0,1,2.21,2.21,2.9,2.9,0,0,1,.42,1.45c0,1.11-.7,2.63-2.15,4.5s-3,2.9-4.15,2.9-2.42-.69-4.22-2l-.69-.48c-1-.9-2.7-2.42-4.92-4.63s-3.87-3.73-5-4.63v5.32a20.61,20.61,0,0,1-.07,2.35,6.18,6.18,0,0,1-.69,1.87c-.62,1.17-2.35,1.79-5.33,1.79s-4.7-.62-5.33-1.86a5.77,5.77,0,0,1-.55-1.87,17.37,17.37,0,0,1-.14-2.35V6.08a19.52,19.52,0,0,1,.14-2.42,5.91,5.91,0,0,1,.55-1.79Q70.38,0,74.84,0c2.22,0,3.81.41,4.71,1.17a4,4,0,0,1,1.24,3,13.92,13.92,0,0,1,.07,1.94v21.9c.83-.69,2.08-1.87,3.81-3.52s2.9-2.84,3.73-3.53l.84-.55a7.21,7.21,0,0,1,4.15-1.87c1.17,0,2.49.9,4,2.77s2.21,3.38,2.21,4.42-.83,2.28-2.56,3.73Z"
        transform="translate(0)" />
    <path class="f"
        d="M105.84,6.08A19.52,19.52,0,0,1,106,3.66a5.91,5.91,0,0,1,.55-1.79Q107.48,0,111.93,0c2.84,0,4.57.62,5.26,1.87a6.13,6.13,0,0,1,.69,1.86A22.71,22.71,0,0,1,118,6.15v32a6.85,6.85,0,0,0,.42,3.1c.27.49.9.7,1.87.7a14.06,14.06,0,0,1,1.86.06,3.19,3.19,0,0,1,1.18.63c.9.62,1.38,2.21,1.38,4.9,0,2.9-.48,4.7-1.38,5.32-1.18.83-4.08,1-8.58.42-3.53-.49-5.88-1.66-6.92-3.53-1.31-2.28-1.94-5.87-1.94-10.78Z"
        transform="translate(0)" />
    <path class="f"
        d="M144,53.4a14.67,14.67,0,0,1-11.56-5.32,18.69,18.69,0,0,1-4.63-12.85V23.14a17.71,17.71,0,0,1,.14-2.41,5.61,5.61,0,0,1,.55-1.8c.62-1.24,2.42-1.87,5.4-1.87,3.25,0,5.12.9,5.67,2.63a10.89,10.89,0,0,1,.42,3.52V35.3a5.8,5.8,0,0,0,1.66,4.42A5.9,5.9,0,0,0,146,41.31a6.2,6.2,0,0,0,4.43-1.65,5.93,5.93,0,0,0,1.66-4.36V23.07a19.85,19.85,0,0,1,.13-2.41,6.08,6.08,0,0,1,.63-1.8c.62-1.17,2.35-1.8,5.33-1.8s4.7.63,5.32,1.87a6.08,6.08,0,0,1,.63,1.8,22.6,22.6,0,0,1,.07,2.41V47.6a19.25,19.25,0,0,1-.07,2.28,5.3,5.3,0,0,1-.7,1.8c-.69,1.17-2.49,1.79-5.32,1.79s-4.57-.55-5.19-1.66a5.13,5.13,0,0,1-.7-2.83A8.39,8.39,0,0,1,151,50.36a11.35,11.35,0,0,1-1.87,1.52A9,9,0,0,1,144,53.4Z"
        transform="translate(0)" />
    <path class="f"
        d="M194.48,17.55a5.2,5.2,0,0,1,2.22,1.38,5.25,5.25,0,0,1,.83,3.25A10.58,10.58,0,0,1,196.21,27a4.17,4.17,0,0,1-3.8,2.63,5.66,5.66,0,0,1-2.35-.55,7.45,7.45,0,0,0-3.05-.56,5.18,5.18,0,0,0-3.46,1.32A3.93,3.93,0,0,0,181.89,33V47.53a20.61,20.61,0,0,1-.07,2.35,6.18,6.18,0,0,1-.69,1.87c-.69,1.17-2.49,1.79-5.4,1.79A7.79,7.79,0,0,1,171,52.37a4,4,0,0,1-1.25-3V23.14a19.47,19.47,0,0,1,.14-2.41A5,5,0,0,1,170.4,19c.63-1.24,2.43-1.87,5.4-1.87,2.77,0,4.5.56,5.19,1.59a4.22,4.22,0,0,1,.76,2.28,7.39,7.39,0,0,1,1-1.17A9.77,9.77,0,0,1,185.56,18a8.48,8.48,0,0,1,3.8-1.17c1,0,1.94.07,2.7.14A18.79,18.79,0,0,1,194.48,17.55Z"
        transform="translate(0)" />
    <path class="f"
        d="M201.33,23.21a19.47,19.47,0,0,1,.14-2.41A5.67,5.67,0,0,1,202,19c.62-1.18,2.42-1.8,5.39-1.8,2.22,0,3.81.42,4.71,1.18a3.93,3.93,0,0,1,1.24,3,15.4,15.4,0,0,1,.07,2V47.53a20.61,20.61,0,0,1-.07,2.35,5.92,5.92,0,0,1-.69,1.87c-.62,1.17-2.35,1.79-5.33,1.79s-4.7-.62-5.32-1.86a5.74,5.74,0,0,1-.56-1.8,17.76,17.76,0,0,1-.14-2.42Zm11.35-12.78a2.87,2.87,0,0,1-1.8,1.38,11.64,11.64,0,0,1-3.46.42,12.2,12.2,0,0,1-3.53-.42,2.75,2.75,0,0,1-1.79-1.45,5.84,5.84,0,0,1-.63-1.86,17.49,17.49,0,0,1-.14-2.35,19.52,19.52,0,0,1,.14-2.42A5,5,0,0,1,202,2Q203,.14,207.42.14c2.91,0,4.64.62,5.26,1.86a6.28,6.28,0,0,1,.69,1.8,22.71,22.71,0,0,1,.07,2.42,20.8,20.8,0,0,1-.07,2.35A5.87,5.87,0,0,1,212.68,10.43Z"
        transform="translate(0)" />
    <path class="f"
        d="M217.94,35.37a17.88,17.88,0,0,1,5.81-13.68,19.08,19.08,0,0,1,26.51-.07A18.07,18.07,0,0,1,256,35.3a17.68,17.68,0,0,1-3,10.16A18.94,18.94,0,0,1,245.83,52,19.25,19.25,0,0,1,237,54.16a19.39,19.39,0,0,1-16.05-8.91A17,17,0,0,1,217.94,35.37Zm14.46,5a6.95,6.95,0,0,0,9.07-.07,6,6,0,0,0,2.28-5.11,5.91,5.91,0,0,0-2.14-5.05A7.54,7.54,0,0,0,237,28.46a7.22,7.22,0,0,0-4.64,1.73,6.06,6.06,0,0,0-2.14,5A6.18,6.18,0,0,0,232.4,40.35Z"
        transform="translate(0)" />
</svg>