<?xml version="1.0" encoding="UTF-8" standalone="no"?>
<!DOCTYPE svg PUBLIC "-//W3C//DTD SVG 1.1//EN" "http://www.w3.org/Graphics/SVG/1.1/DTD/svg11.dtd">
<svg width="100%" height="100%" viewBox="0 0 459 311" version="1.1" xmlns="http://www.w3.org/2000/svg" xmlns:xlink="http://www.w3.org/1999/xlink" xml:space="preserve" xmlns:serif="http://www.serif.com/" style="fill-rule:evenodd;clip-rule:evenodd;stroke-linecap:round;stroke-linejoin:round;stroke-miterlimit:1.5;">
    <g transform="matrix(1,0,0,1,-1726.24,-631.845)">
        <g transform="matrix(1.11391,0,0,2.34498,-578.408,-84.022)">
            <g transform="matrix(0.762392,0,0,0.402216,1018.51,79.4801)">
                <rect x="1377.85" y="561.379" width="539.539" height="328.682" style="fill:none;"/>
                <g transform="matrix(3.87325,0,0,3.37244,-4414.64,-10415)">
                    <g transform="matrix(1,0,0,1,0,-4.32109)">
                        <path d="M1533.62,3349.34L1564.52,3266.26L1595.42,3349.34L1533.62,3349.34Z" style="fill:none;stroke:rgb(252,202,23);stroke-width:10.42px;"/>
                    </g>
                    <g transform="matrix(1,0,0,1,32.1741,-4.32109)">
                        <path d="M1533.62,3349.34L1564.52,3266.26L1595.42,3349.34L1533.62,3349.34Z" style="fill:none;stroke:rgb(252,202,23);stroke-width:10.42px;"/>
                    </g>
                    <g transform="matrix(1,0,0,1,-30.8958,-4.32109)">
                        <path d="M1533.62,3349.34L1564.52,3266.26L1595.42,3349.34L1533.62,3349.34Z" style="fill:none;stroke:rgb(252,202,23);stroke-width:10.42px;"/>
                    </g>
                </g>
            </g>
        </g>
    </g>
</svg>
