<?xml version="1.0" encoding="UTF-8" standalone="no"?>
<!DOCTYPE svg PUBLIC "-//W3C//DTD SVG 1.1//EN" "http://www.w3.org/Graphics/SVG/1.1/DTD/svg11.dtd">
<svg width="100%" height="100%" viewBox="0 0 458 128" version="1.1" xmlns="http://www.w3.org/2000/svg" xmlns:xlink="http://www.w3.org/1999/xlink" xml:space="preserve" xmlns:serif="http://www.serif.com/" style="fill-rule:evenodd;clip-rule:evenodd;stroke-linecap:round;stroke-linejoin:round;stroke-miterlimit:1.5;">
    <g transform="matrix(1,0,0,1,-1727.2,-631.845)">
        <g transform="matrix(1.11391,0,0,2.34498,-578.408,-84.022)">
            <g transform="matrix(1.01856,0,0,0.483833,2275.08,332.37)">
                <g transform="matrix(1,0,0,1,-201.5,-56)">
                    <clipPath id="_clip1">
                        <rect x="0" y="0" width="403" height="112"/>
                    </clipPath>
                    <g clip-path="url(#_clip1)">
                        <g transform="matrix(1.8692,0,0,1,-6.75,14.742)">
                            <g>
                                <g transform="matrix(66.8736,0,0,125,0,92.0625)">
                                    <path d="M0.489,-0.678C0.489,-0.665 0.485,-0.654 0.477,-0.646C0.469,-0.638 0.456,-0.634 0.437,-0.634L0.212,-0.634L0.179,-0.446C0.216,-0.454 0.25,-0.458 0.282,-0.458C0.319,-0.458 0.352,-0.452 0.381,-0.442C0.409,-0.431 0.433,-0.415 0.453,-0.396C0.472,-0.377 0.486,-0.354 0.496,-0.328C0.506,-0.301 0.511,-0.273 0.511,-0.242C0.511,-0.204 0.504,-0.169 0.491,-0.139C0.478,-0.108 0.459,-0.082 0.436,-0.06C0.413,-0.038 0.386,-0.021 0.355,-0.01C0.323,0.002 0.289,0.008 0.253,0.008C0.232,0.008 0.212,0.006 0.193,0.002C0.173,-0.002 0.155,-0.008 0.139,-0.015C0.122,-0.022 0.106,-0.03 0.092,-0.039C0.078,-0.048 0.065,-0.057 0.054,-0.068L0.081,-0.106C0.087,-0.114 0.095,-0.119 0.105,-0.119C0.111,-0.119 0.119,-0.116 0.127,-0.111C0.136,-0.106 0.146,-0.1 0.158,-0.094C0.17,-0.087 0.184,-0.081 0.2,-0.076C0.216,-0.071 0.236,-0.069 0.258,-0.069C0.283,-0.069 0.306,-0.073 0.326,-0.081C0.345,-0.089 0.363,-0.1 0.377,-0.115C0.391,-0.13 0.402,-0.147 0.41,-0.168C0.417,-0.189 0.421,-0.212 0.421,-0.238C0.421,-0.26 0.418,-0.28 0.411,-0.298C0.405,-0.316 0.395,-0.331 0.382,-0.344C0.369,-0.357 0.352,-0.367 0.333,-0.374C0.313,-0.381 0.29,-0.384 0.264,-0.384C0.246,-0.384 0.227,-0.383 0.208,-0.38C0.188,-0.377 0.168,-0.372 0.148,-0.365L0.092,-0.382L0.15,-0.717L0.489,-0.717L0.489,-0.678Z" style="fill-rule:nonzero;"/>
                                </g>
                                <g transform="matrix(66.8736,0,0,125,42.9997,92.0625)">
                                    <path d="M0.326,-0.583L0.326,-0.37L0.529,-0.37L0.529,-0.302L0.326,-0.302L0.326,-0.087L0.253,-0.087L0.253,-0.302L0.05,-0.302L0.05,-0.37L0.253,-0.37L0.253,-0.583L0.326,-0.583Z" style="fill-rule:nonzero;"/>
                                </g>
                                <g transform="matrix(0.421426,0,0,0.787729,78.3873,-147.867)">
                                    <g transform="matrix(0.923032,0,0,1,-99.379,172)">
                                        <path d="M190.5,39.891C198.689,32.446 208.469,28 218.554,28C242.406,28 258.983,52.869 255.55,83.5C252.117,114.131 229.965,139 206.113,139C200.441,139 195.18,137.594 190.5,135.037C185.82,137.594 180.559,139 174.887,139C151.035,139 128.883,114.131 125.45,83.5C122.017,52.869 138.594,28 162.446,28C172.531,28 182.311,32.446 190.5,39.891Z" style="fill:rgb(234,57,30);"/>
                                    </g>
                                    <g id="Leaf" transform="matrix(1.02038,0.785151,-0.785151,1.02038,-159.141,-175.642)">
                                        <g transform="matrix(0.5,0,0,0.5,0,0)">
                                            <path d="M653.465,175.078C656.997,173.526 661.107,174.148 664.023,176.676C666.938,179.203 668.136,183.183 667.101,186.9C654.173,227.828 677.822,232.214 669,255C668.999,255.003 668.998,255.006 668.997,255.009C666.987,260.194 662.498,264.016 657.059,265.173C651.62,266.331 645.963,264.667 642.017,260.749C639.728,258.33 637.041,255.437 634,252C614.165,229.577 616.27,191.536 653.465,175.078Z" style="fill:rgb(0,207,115);"/>
                                        </g>
                                        <g transform="matrix(-0.264439,0,0,0.292392,497.414,59.4792)">
                                            <path d="M646.133,126.294C674.04,153.111 670.98,178.775 655.782,201C646.139,216.422 641.216,227.721 642.167,242.492" style="fill:none;stroke:rgb(22,33,48);stroke-width:16.61px;"/>
                                        </g>
                                    </g>
                                </g>
                                <g transform="matrix(66.8736,0,0,125,140.702,92.0625)">
                                    <path d="M0.075,-0.287L0.505,-0.287L0.505,-0.22L0.075,-0.22L0.075,-0.287ZM0.075,-0.455L0.505,-0.455L0.505,-0.387L0.075,-0.387L0.075,-0.455Z" style="fill-rule:nonzero;"/>
                                </g>
                                <g transform="matrix(66.8736,0,0,125,183.702,92.0625)">
                                    <path d="M0.29,0.008C0.254,0.008 0.221,0.003 0.192,-0.006C0.162,-0.016 0.136,-0.029 0.115,-0.047C0.094,-0.065 0.077,-0.086 0.066,-0.111C0.054,-0.136 0.048,-0.165 0.048,-0.196C0.048,-0.242 0.06,-0.28 0.084,-0.31C0.108,-0.34 0.142,-0.361 0.187,-0.374C0.149,-0.388 0.121,-0.408 0.102,-0.436C0.083,-0.464 0.073,-0.497 0.073,-0.536C0.073,-0.562 0.078,-0.587 0.089,-0.61C0.099,-0.633 0.114,-0.653 0.133,-0.67C0.152,-0.687 0.174,-0.7 0.201,-0.71C0.227,-0.72 0.257,-0.725 0.29,-0.725C0.322,-0.725 0.351,-0.72 0.378,-0.71C0.405,-0.7 0.428,-0.687 0.447,-0.67C0.466,-0.653 0.48,-0.633 0.491,-0.61C0.501,-0.587 0.506,-0.562 0.506,-0.536C0.506,-0.497 0.496,-0.464 0.477,-0.436C0.458,-0.408 0.429,-0.388 0.392,-0.374C0.437,-0.361 0.471,-0.34 0.495,-0.31C0.519,-0.28 0.531,-0.242 0.531,-0.196C0.531,-0.165 0.525,-0.136 0.513,-0.111C0.501,-0.086 0.485,-0.065 0.464,-0.047C0.443,-0.029 0.417,-0.016 0.388,-0.006C0.358,0.003 0.325,0.008 0.29,0.008ZM0.29,-0.063C0.313,-0.063 0.334,-0.066 0.352,-0.073C0.371,-0.079 0.386,-0.088 0.399,-0.1C0.412,-0.112 0.422,-0.126 0.429,-0.143C0.436,-0.159 0.439,-0.178 0.439,-0.198C0.439,-0.222 0.435,-0.243 0.427,-0.261C0.419,-0.278 0.408,-0.293 0.394,-0.304C0.38,-0.315 0.364,-0.323 0.346,-0.328C0.328,-0.333 0.309,-0.335 0.29,-0.336C0.27,-0.335 0.251,-0.333 0.233,-0.328C0.215,-0.323 0.199,-0.315 0.185,-0.304C0.171,-0.293 0.16,-0.278 0.152,-0.261C0.144,-0.243 0.14,-0.222 0.14,-0.198C0.14,-0.178 0.143,-0.159 0.15,-0.143C0.157,-0.126 0.167,-0.112 0.18,-0.1C0.193,-0.088 0.208,-0.079 0.227,-0.073C0.245,-0.066 0.266,-0.063 0.29,-0.063ZM0.29,-0.407C0.313,-0.407 0.333,-0.411 0.349,-0.418C0.366,-0.425 0.379,-0.434 0.39,-0.446C0.4,-0.458 0.407,-0.472 0.412,-0.487C0.417,-0.502 0.419,-0.518 0.419,-0.535C0.419,-0.551 0.416,-0.567 0.411,-0.582C0.405,-0.596 0.397,-0.609 0.386,-0.62C0.375,-0.631 0.362,-0.64 0.346,-0.646C0.33,-0.652 0.311,-0.656 0.29,-0.656C0.268,-0.656 0.249,-0.652 0.233,-0.646C0.217,-0.64 0.204,-0.631 0.193,-0.62C0.182,-0.609 0.174,-0.596 0.168,-0.582C0.163,-0.567 0.16,-0.551 0.16,-0.535C0.16,-0.518 0.162,-0.502 0.167,-0.487C0.172,-0.472 0.179,-0.458 0.19,-0.446C0.2,-0.434 0.213,-0.425 0.23,-0.418C0.246,-0.411 0.266,-0.407 0.29,-0.407Z" style="fill-rule:nonzero;"/>
                                </g>
                            </g>
                        </g>
                    </g>
                </g>
            </g>
        </g>
    </g>
</svg>
