<?xml version="1.0" encoding="UTF-8" standalone="no"?>
<!DOCTYPE svg PUBLIC "-//W3C//DTD SVG 1.1//EN" "http://www.w3.org/Graphics/SVG/1.1/DTD/svg11.dtd">
<svg width="100%" height="100%" viewBox="0 0 373 306" version="1.1" xmlns="http://www.w3.org/2000/svg" xmlns:xlink="http://www.w3.org/1999/xlink" xml:space="preserve" xmlns:serif="http://www.serif.com/" style="fill-rule:evenodd;clip-rule:evenodd;stroke-linecap:round;stroke-linejoin:round;stroke-miterlimit:1.5;">
    <g transform="matrix(1,0,0,1,-1769.31,-634.099)">
        <g transform="matrix(1.11391,0,0,2.34498,-578.408,-84.022)">
            <g transform="matrix(0.736428,0,0,0.349816,2086.55,275)">
                <rect x="28.648" y="89.295" width="454.705" height="372.419" style="fill:none;"/>
                <clipPath id="_clip1">
                    <rect x="28.648" y="89.295" width="454.705" height="372.419"/>
                </clipPath>
                <g clip-path="url(#_clip1)">
                    <g>
                        <g transform="matrix(1.08263,0,0,1.21905,28.6476,0)">
                            <path d="M0,210L420,210" style="fill:none;stroke:rgb(22,33,48);stroke-width:6.61px;"/>
                        </g>
                        <g transform="matrix(1.37707,0,0,1.37707,-14.5044,37.8921)">
                            <circle cx="72.5" cy="76.5" r="13.5" style="fill:rgb(252,202,23);"/>
                        </g>
                        <g transform="matrix(1.37707,0,0,1.37707,156.162,73.2444)">
                            <circle cx="72.5" cy="76.5" r="13.5" style="fill:rgb(252,202,23);"/>
                        </g>
                        <g transform="matrix(1.37707,0,0,1.37707,156.162,2.53968)">
                            <circle cx="72.5" cy="76.5" r="13.5" style="fill:rgb(252,202,23);"/>
                        </g>
                        <g transform="matrix(1,0,0,1,1.21905,15.2381)">
                            <g transform="matrix(1.37707,0,0,1.37707,297.572,58.0063)">
                                <circle cx="72.5" cy="76.5" r="13.5" style="fill:rgb(252,202,23);"/>
                            </g>
                            <g transform="matrix(1.37707,0,0,1.37707,297.572,-12.6984)">
                                <circle cx="72.5" cy="76.5" r="13.5" style="fill:rgb(252,202,23);"/>
                            </g>
                            <g transform="matrix(1.37707,0,0,1.37707,354.867,58.0063)">
                                <circle cx="72.5" cy="76.5" r="13.5" style="fill:rgb(252,202,23);"/>
                            </g>
                            <g transform="matrix(1.37707,0,0,1.37707,354.867,-12.6984)">
                                <circle cx="72.5" cy="76.5" r="13.5" style="fill:rgb(252,202,23);"/>
                            </g>
                        </g>
                        <g transform="matrix(1.21905,0,0,1.21905,0,15.2381)">
                            <g transform="matrix(1,-0,-0,1,23.5,60.75)">
                                <path d="M120.206,34.875L129.581,44.25L120.206,53.625" style="fill:none;stroke:rgb(22,33,48);stroke-width:6.25px;stroke-linejoin:miter;stroke-miterlimit:10;"/>
                                <path d="M99,44.25L129.581,44.25" style="fill:none;stroke:rgb(22,33,48);stroke-width:6.25px;"/>
                            </g>
                        </g>
                        <g transform="matrix(1.21905,0,0,1.21905,170.667,15.2381)">
                            <g transform="matrix(1,-0,-0,1,-116.5,60.75)">
                                <path d="M260.206,34.875L269.581,44.25L260.206,53.625" style="fill:none;stroke:rgb(22,33,48);stroke-width:6.25px;stroke-linejoin:miter;stroke-miterlimit:10;"/>
                                <path d="M239,44.25L269.581,44.25" style="fill:none;stroke:rgb(22,33,48);stroke-width:6.25px;"/>
                            </g>
                        </g>
                        <g transform="matrix(1.21905,0,0,1.21905,0,256)">
                            <g transform="matrix(1,-0,-0,1,23.5,-136.75)">
                                <path d="M120.206,232.375L129.581,241.75L120.206,251.125" style="fill:none;stroke:rgb(22,33,48);stroke-width:6.25px;stroke-linejoin:miter;stroke-miterlimit:10;"/>
                                <path d="M99,241.75L129.581,241.75" style="fill:none;stroke:rgb(22,33,48);stroke-width:6.25px;"/>
                            </g>
                        </g>
                        <g transform="matrix(1.21905,0,0,1.21905,170.667,256)">
                            <g transform="matrix(1,-0,-0,1,-116.5,-136.75)">
                                <path d="M260.206,232.375L269.581,241.75L260.206,251.125" style="fill:none;stroke:rgb(22,33,48);stroke-width:6.25px;stroke-linejoin:miter;stroke-miterlimit:10;"/>
                                <path d="M239,241.75L269.581,241.75" style="fill:none;stroke:rgb(22,33,48);stroke-width:6.25px;"/>
                            </g>
                        </g>
                        <g transform="matrix(1.37707,0,0,1.37707,-14.5044,337.778)">
                            <circle cx="72.5" cy="76.5" r="13.5" style="fill:rgb(252,202,23);"/>
                        </g>
                        <g transform="matrix(1.37707,0,0,1.37707,-14.5044,219.53)">
                            <circle cx="72.5" cy="76.5" r="13.5" style="fill:rgb(252,202,23);"/>
                        </g>
                        <g transform="matrix(1.37707,0,0,1.37707,-14.5044,278.654)">
                            <circle cx="72.5" cy="76.5" r="13.5" style="fill:rgb(252,202,23);"/>
                        </g>
                        <g transform="matrix(1.37707,0,0,1.37707,129.343,337.778)">
                            <circle cx="72.5" cy="76.5" r="13.5" style="fill:rgb(252,202,23);"/>
                        </g>
                        <g transform="matrix(1.37707,0,0,1.37707,129.343,219.53)">
                            <circle cx="72.5" cy="76.5" r="13.5" style="fill:rgb(252,202,23);"/>
                        </g>
                        <g transform="matrix(1.37707,0,0,1.37707,129.343,278.654)">
                            <circle cx="72.5" cy="76.5" r="13.5" style="fill:rgb(252,202,23);"/>
                        </g>
                        <g transform="matrix(1.37707,0,0,1.37707,182.981,337.778)">
                            <circle cx="72.5" cy="76.5" r="13.5" style="fill:rgb(252,202,23);"/>
                        </g>
                        <g transform="matrix(1.37707,0,0,1.37707,182.981,219.53)">
                            <circle cx="72.5" cy="76.5" r="13.5" style="fill:rgb(252,202,23);"/>
                        </g>
                        <g transform="matrix(1.37707,0,0,1.37707,182.981,278.654)">
                            <circle cx="72.5" cy="76.5" r="13.5" style="fill:rgb(252,202,23);"/>
                        </g>
                        <g transform="matrix(1,0,0,1,5.33333,2.28571)">
                            <g transform="matrix(1.01587,0,0,1.30612,74.6667,-29.7143)">
                                <path d="M367.5,295.887C367.5,291.948 363.389,288.75 358.324,288.75L324.176,288.75C319.111,288.75 315,291.948 315,295.887L315,334.113C315,338.052 319.111,341.25 324.176,341.25L358.324,341.25C363.389,341.25 367.5,338.052 367.5,334.113L367.5,295.887Z" style="fill:rgb(52,125,226);"/>
                            </g>
                            <g transform="matrix(65.6018,0,0,65.6018,407.543,404.705)">
                                <path d="M0.019,-0.658C0.03,-0.668 0.042,-0.677 0.056,-0.686C0.069,-0.695 0.084,-0.703 0.1,-0.71C0.115,-0.716 0.132,-0.721 0.151,-0.725C0.169,-0.729 0.189,-0.731 0.21,-0.731C0.239,-0.731 0.265,-0.727 0.289,-0.719C0.313,-0.711 0.334,-0.7 0.351,-0.685C0.368,-0.67 0.381,-0.652 0.39,-0.631C0.399,-0.61 0.404,-0.587 0.404,-0.561C0.404,-0.535 0.4,-0.513 0.393,-0.495C0.386,-0.476 0.376,-0.46 0.365,-0.447C0.354,-0.433 0.342,-0.421 0.329,-0.411C0.316,-0.401 0.304,-0.392 0.292,-0.383C0.28,-0.374 0.27,-0.365 0.262,-0.357C0.253,-0.348 0.248,-0.339 0.247,-0.328L0.235,-0.255L0.151,-0.255L0.142,-0.337C0.142,-0.338 0.142,-0.34 0.142,-0.341L0.142,-0.345C0.142,-0.36 0.145,-0.372 0.153,-0.383C0.16,-0.394 0.169,-0.404 0.18,-0.414C0.191,-0.423 0.203,-0.432 0.216,-0.442C0.228,-0.451 0.24,-0.46 0.251,-0.471C0.262,-0.481 0.271,-0.493 0.279,-0.507C0.286,-0.52 0.29,-0.536 0.29,-0.554C0.29,-0.566 0.287,-0.576 0.283,-0.586C0.278,-0.595 0.272,-0.603 0.264,-0.61C0.256,-0.617 0.246,-0.622 0.235,-0.626C0.224,-0.63 0.212,-0.632 0.199,-0.632C0.18,-0.632 0.164,-0.629 0.151,-0.625C0.138,-0.621 0.126,-0.616 0.117,-0.611C0.108,-0.606 0.1,-0.601 0.094,-0.597C0.088,-0.593 0.082,-0.591 0.077,-0.591C0.065,-0.591 0.056,-0.596 0.051,-0.606L0.019,-0.658ZM0.113,-0.068C0.113,-0.078 0.115,-0.088 0.119,-0.098C0.123,-0.107 0.128,-0.115 0.135,-0.122C0.142,-0.128 0.15,-0.134 0.159,-0.138C0.168,-0.142 0.178,-0.144 0.189,-0.144C0.199,-0.144 0.209,-0.142 0.219,-0.138C0.228,-0.134 0.236,-0.128 0.243,-0.122C0.249,-0.115 0.255,-0.107 0.259,-0.098C0.263,-0.088 0.265,-0.078 0.265,-0.068C0.265,-0.057 0.263,-0.047 0.259,-0.038C0.255,-0.029 0.249,-0.021 0.243,-0.015C0.236,-0.008 0.228,-0.003 0.219,0.001C0.209,0.005 0.199,0.007 0.189,0.007C0.178,0.007 0.168,0.005 0.159,0.001C0.15,-0.003 0.142,-0.008 0.135,-0.015C0.128,-0.021 0.123,-0.029 0.119,-0.038C0.115,-0.047 0.113,-0.057 0.113,-0.068Z" style="fill:white;fill-rule:nonzero;"/>
                            </g>
                        </g>
                    </g>
                </g>
            </g>
        </g>
    </g>
</svg>
