<?xml version="1.0" encoding="UTF-8" standalone="no"?>
<!DOCTYPE svg PUBLIC "-//W3C//DTD SVG 1.1//EN" "http://www.w3.org/Graphics/SVG/1.1/DTD/svg11.dtd">
<svg width="100%" height="100%" viewBox="0 0 458 153" version="1.1" xmlns="http://www.w3.org/2000/svg" xmlns:xlink="http://www.w3.org/1999/xlink" xml:space="preserve" xmlns:serif="http://www.serif.com/" style="fill-rule:evenodd;clip-rule:evenodd;stroke-linecap:round;stroke-miterlimit:10;">
    <g transform="matrix(1,0,0,1,-1727.2,-710.643)">
        <g transform="matrix(1.11391,0,0,2.34498,-578.408,-84.022)">
            <g transform="matrix(0.587238,0,0,0.278948,2275.08,371.376)">
                <g transform="matrix(1,0,0,1,-349.5,-116.5)">
                    <clipPath id="_clip1">
                        <rect x="0" y="0" width="699" height="233"/>
                    </clipPath>
                    <g clip-path="url(#_clip1)">
                        <g transform="matrix(2.08804,0,0,1.33575,-1213.85,0)">
                            <g id="_7.-En-växande-blomma" serif:id="7. En växande blomma">
                                <rect x="581.333" y="0" width="334.5" height="173.91" style="fill:none;"/>
                                <g>
                                    <g transform="matrix(0.663954,0,0,1.03789,542.16,7.5545)">
                                        <g id="Prick">
                                            <circle cx="72.5" cy="76.5" r="13.5" style="fill:rgb(252,202,23);"/>
                                        </g>
                                    </g>
                                    <g transform="matrix(0.53404,0,0,1.60568,270.878,-62.7755)">
                                        <g transform="matrix(1.24327,0,0,0.646387,659.282,43.8007)">
                                            <g id="Prick1" serif:id="Prick">
                                                <circle cx="72.5" cy="76.5" r="13.5" style="fill:rgb(252,202,23);"/>
                                            </g>
                                        </g>
                                        <g transform="matrix(1.24327,0,0,0.646387,659.282,21.0871)">
                                            <g id="Prick2" serif:id="Prick">
                                                <circle cx="72.5" cy="76.5" r="13.5" style="fill:rgb(252,202,23);"/>
                                            </g>
                                        </g>
                                        <g transform="matrix(1.24327,0,0,0.646387,702.97,43.8007)">
                                            <g id="Prick3" serif:id="Prick">
                                                <circle cx="72.5" cy="76.5" r="13.5" style="fill:rgb(252,202,23);"/>
                                            </g>
                                        </g>
                                        <g transform="matrix(1.24327,0,0,0.646387,615.595,43.8007)">
                                            <g id="Prick4" serif:id="Prick">
                                                <circle cx="72.5" cy="76.5" r="13.5" style="fill:rgb(252,202,23);"/>
                                            </g>
                                        </g>
                                        <g transform="matrix(1.24327,0,0,0.646387,660.434,66.5143)">
                                            <g id="Prick5" serif:id="Prick">
                                                <circle cx="72.5" cy="76.5" r="13.5" style="fill:rgb(252,202,23);"/>
                                            </g>
                                        </g>
                                    </g>
                                    <g transform="matrix(0.478918,0,0,0.748644,581.333,2.12812e-05)">
                                        <g id="Arrow">
                                            <g>
                                                <path d="M81.206,106.773L90.581,116.148L81.206,125.523" style="fill:none;stroke:rgb(22,33,48);stroke-width:6.25px;"/>
                                                <path d="M60,116.148L90.581,116.148" style="fill:none;stroke:rgb(22,33,48);stroke-width:6.25px;stroke-linejoin:round;stroke-miterlimit:1.5;"/>
                                            </g>
                                        </g>
                                    </g>
                                    <g transform="matrix(0.478918,0,0,0.748644,581.333,2.12812e-05)">
                                        <g id="Arrow1" serif:id="Arrow">
                                            <g>
                                                <path d="M301.206,106.773L310.581,116.148L301.206,125.523" style="fill:none;stroke:rgb(22,33,48);stroke-width:6.25px;"/>
                                                <path d="M280,116.148L310.581,116.148" style="fill:none;stroke:rgb(22,33,48);stroke-width:6.25px;stroke-linejoin:round;stroke-miterlimit:1.5;"/>
                                            </g>
                                        </g>
                                    </g>
                                    <g transform="matrix(0.53404,0,0,1.60568,398.613,-62.7755)">
                                        <g transform="matrix(1.24327,0,0,0.646387,659.282,43.8007)">
                                            <g id="Prick6" serif:id="Prick">
                                                <circle cx="72.5" cy="76.5" r="13.5" style="fill:rgb(252,202,23);"/>
                                            </g>
                                        </g>
                                        <g transform="matrix(1.24327,0,0,0.646387,659.282,21.0871)">
                                            <g id="Prick7" serif:id="Prick">
                                                <circle cx="72.5" cy="76.5" r="13.5" style="fill:rgb(252,202,23);"/>
                                            </g>
                                        </g>
                                        <g transform="matrix(1.24327,0,0,0.646387,659.282,-1.62657)">
                                            <g id="Prick8" serif:id="Prick">
                                                <circle cx="72.5" cy="76.5" r="13.5" style="fill:rgb(252,202,23);"/>
                                            </g>
                                        </g>
                                        <g transform="matrix(7.61282e-17,-0.646387,1.24327,3.95798e-17,610.621,140.112)">
                                            <g id="Prick9" serif:id="Prick">
                                                <circle cx="72.5" cy="76.5" r="13.5" style="fill:rgb(252,202,23);"/>
                                            </g>
                                        </g>
                                        <g transform="matrix(7.61282e-17,-0.646387,1.24327,3.95798e-17,566.934,140.112)">
                                            <g id="Prick10" serif:id="Prick">
                                                <circle cx="72.5" cy="76.5" r="13.5" style="fill:rgb(252,202,23);"/>
                                            </g>
                                        </g>
                                        <g transform="matrix(1.24327,0,0,0.646387,702.97,43.8007)">
                                            <g id="Prick11" serif:id="Prick">
                                                <circle cx="72.5" cy="76.5" r="13.5" style="fill:rgb(252,202,23);"/>
                                            </g>
                                        </g>
                                        <g transform="matrix(1.24327,0,0,0.646387,746.657,43.8007)">
                                            <g id="Prick12" serif:id="Prick">
                                                <circle cx="72.5" cy="76.5" r="13.5" style="fill:rgb(252,202,23);"/>
                                            </g>
                                        </g>
                                        <g transform="matrix(1.24327,0,0,0.646387,659.282,66.5143)">
                                            <g id="Prick13" serif:id="Prick">
                                                <circle cx="72.5" cy="76.5" r="13.5" style="fill:rgb(252,202,23);"/>
                                            </g>
                                        </g>
                                        <g transform="matrix(1.24327,0,0,0.646387,659.282,89.228)">
                                            <g id="Prick14" serif:id="Prick">
                                                <circle cx="72.5" cy="76.5" r="13.5" style="fill:rgb(252,202,23);"/>
                                            </g>
                                        </g>
                                        <g transform="matrix(1.24327,0,0,0.646387,702.97,21.0871)">
                                            <g id="Prick15" serif:id="Prick">
                                                <circle cx="72.5" cy="76.5" r="13.5" style="fill:rgb(252,202,23);"/>
                                            </g>
                                        </g>
                                        <g transform="matrix(1.24327,0,0,0.646387,702.97,66.5143)">
                                            <g id="Prick16" serif:id="Prick">
                                                <circle cx="72.5" cy="76.5" r="13.5" style="fill:rgb(252,202,23);"/>
                                            </g>
                                        </g>
                                        <g transform="matrix(1.24327,0,0,0.646387,615.595,66.5143)">
                                            <g id="Prick17" serif:id="Prick">
                                                <circle cx="72.5" cy="76.5" r="13.5" style="fill:rgb(252,202,23);"/>
                                            </g>
                                        </g>
                                        <g transform="matrix(1.24327,0,0,0.646387,615.595,21.0871)">
                                            <g id="Prick18" serif:id="Prick">
                                                <circle cx="72.5" cy="76.5" r="13.5" style="fill:rgb(252,202,23);"/>
                                            </g>
                                        </g>
                                    </g>
                                    <g transform="matrix(0.478918,0,0,0.748644,581.333,2.12812e-05)">
                                        <g id="Arrow2" serif:id="Arrow">
                                            <g>
                                                <path d="M616.206,106.773L625.581,116.148L616.206,125.523" style="fill:none;stroke:rgb(22,33,48);stroke-width:6.25px;"/>
                                                <path d="M595,116.148L625.581,116.148" style="fill:none;stroke:rgb(22,33,48);stroke-width:6.25px;stroke-linejoin:round;stroke-miterlimit:1.5;"/>
                                            </g>
                                        </g>
                                    </g>
                                    <g id="BOXQ" transform="matrix(0.392862,0,0,0.614122,739.833,-147.466)">
                                        <g transform="matrix(1.01587,0,0,1.30612,74.6667,-29.7143)">
                                            <path d="M367.5,295.887C367.5,291.948 363.389,288.75 358.324,288.75L324.176,288.75C319.111,288.75 315,291.948 315,295.887L315,334.113C315,338.052 319.111,341.25 324.176,341.25L358.324,341.25C363.389,341.25 367.5,338.052 367.5,334.113L367.5,295.887Z" style="fill:rgb(52,125,226);"/>
                                        </g>
                                        <g transform="matrix(65.6018,0,0,65.6018,407.543,404.705)">
                                            <path d="M0.019,-0.658C0.03,-0.668 0.042,-0.677 0.056,-0.686C0.069,-0.695 0.084,-0.703 0.1,-0.71C0.115,-0.716 0.132,-0.721 0.151,-0.725C0.169,-0.729 0.189,-0.731 0.21,-0.731C0.239,-0.731 0.265,-0.727 0.289,-0.719C0.313,-0.711 0.334,-0.7 0.351,-0.685C0.368,-0.67 0.381,-0.652 0.39,-0.631C0.399,-0.61 0.404,-0.587 0.404,-0.561C0.404,-0.535 0.4,-0.513 0.393,-0.495C0.386,-0.476 0.376,-0.46 0.365,-0.447C0.354,-0.433 0.342,-0.421 0.329,-0.411C0.316,-0.401 0.304,-0.392 0.292,-0.383C0.28,-0.374 0.27,-0.365 0.262,-0.357C0.253,-0.348 0.248,-0.339 0.247,-0.328L0.235,-0.255L0.151,-0.255L0.142,-0.337L0.142,-0.345C0.142,-0.36 0.145,-0.372 0.153,-0.383C0.16,-0.394 0.169,-0.404 0.18,-0.414C0.191,-0.423 0.203,-0.432 0.216,-0.442C0.228,-0.451 0.24,-0.46 0.251,-0.471C0.262,-0.481 0.271,-0.493 0.279,-0.507C0.286,-0.52 0.29,-0.536 0.29,-0.554C0.29,-0.566 0.287,-0.576 0.283,-0.586C0.278,-0.595 0.272,-0.603 0.264,-0.61C0.256,-0.617 0.246,-0.622 0.235,-0.626C0.224,-0.63 0.212,-0.632 0.199,-0.632C0.18,-0.632 0.164,-0.629 0.151,-0.625C0.138,-0.621 0.126,-0.616 0.117,-0.611C0.108,-0.606 0.1,-0.601 0.094,-0.597C0.088,-0.593 0.082,-0.591 0.077,-0.591C0.065,-0.591 0.056,-0.596 0.051,-0.606L0.019,-0.658ZM0.113,-0.068C0.113,-0.078 0.115,-0.088 0.119,-0.098C0.123,-0.107 0.128,-0.115 0.135,-0.122C0.142,-0.128 0.15,-0.134 0.159,-0.138C0.168,-0.142 0.178,-0.144 0.189,-0.144C0.199,-0.144 0.209,-0.142 0.219,-0.138C0.228,-0.134 0.236,-0.128 0.243,-0.122C0.249,-0.115 0.255,-0.107 0.259,-0.098C0.263,-0.088 0.265,-0.078 0.265,-0.068C0.265,-0.057 0.263,-0.047 0.259,-0.038C0.255,-0.029 0.249,-0.021 0.243,-0.015C0.236,-0.008 0.228,-0.003 0.219,0.001C0.209,0.005 0.199,0.007 0.189,0.007C0.178,0.007 0.168,0.005 0.159,0.001C0.15,-0.003 0.142,-0.008 0.135,-0.015C0.128,-0.021 0.123,-0.029 0.119,-0.038C0.115,-0.047 0.113,-0.057 0.113,-0.068Z" style="fill:white;fill-rule:nonzero;"/>
                                        </g>
                                    </g>
                                </g>
                            </g>
                        </g>
                    </g>
                </g>
            </g>
        </g>
    </g>
</svg>
